PathFileType	4	(X/Y/Z)	2014001\dynamic\2014001_C1_01.trc
DataRate	CameraRate	NumFrames	NumMarkers	Units	OrigDataRate	OrigDataStartFrame	OrigNumFrames
100.000000	100.000000	4	52	mm	100.000000	338	387
Frame#	Time	L_IAS			L_IPS			R_IPS			R_IAS			L_FTC			L_FLE			L_FME			L_FAX			L_TTC			L_FAL			L_TAM			L_FCC			L_FM1			L_FM2			L_FM5			R_FTC			R_FLE			R_FME			R_FAX			R_TTC			R_FAL			R_TAM			R_FCC			R_FM1			R_FM2			R_FM5			CV7			TV10			SXS			SJN			L_SIA			L_SRS			L_SAA			L_SAE			L_HLE			L_HME			L_UOA			L_RSP			L_UHE			L_HM2			L_HM5			R_SIA			R_SRS			R_SAA			R_SAE			R_HLE			R_HME			R_UOA			R_RSP			R_UHE			R_HM2			R_HM5			
		X1	Y1	Z1	X2	Y2	Z2	X3	Y3	Z3	X4	Y4	Z4	X5	Y5	Z5	X6	Y6	Z6	X7	Y7	Z7	X8	Y8	Z8	X9	Y9	Z9	X10	Y10	Z10	X11	Y11	Z11	X12	Y12	Z12	X13	Y13	Z13	X14	Y14	Z14	X15	Y15	Z15	X16	Y16	Z16	X17	Y17	Z17	X18	Y18	Z18	X19	Y19	Z19	X20	Y20	Z20	X21	Y21	Z21	X22	Y22	Z22	X23	Y23	Z23	X24	Y24	Z24	X25	Y25	Z25	X26	Y26	Z26	X27	Y27	Z27	X28	Y28	Z28	X29	Y29	Z29	X30	Y30	Z30	X31	Y31	Z31	X32	Y32	Z32	X33	Y33	Z33	X34	Y34	Z34	X35	Y35	Z35	X36	Y36	Z36	X37	Y37	Z37	X38	Y38	Z38	X39	Y39	Z39	X40	Y40	Z40	X41	Y41	Z41	X42	Y42	Z42	X43	Y43	Z43	X44	Y44	Z44	X45	Y45	Z45	X46	Y46	Z46	X47	Y47	Z47	X48	Y48	Z48	X49	Y49	Z49	X50	Y50	Z50	X51	Y51	Z51	X52	Y52	Z52	

339	3.38	104.8911209106446	873.5989379882817	-284.7906494140626	176.6613464355469	916.7610473632817	-103.9728469848633	267.4649047851564	914.0891723632817	-102.736198425293	345.9799804687501	893.453979492188	-280.0372314453126	58.47895431518558	785.7416992187505	-203.0809478759767	118.3184661865235	433.5767822265627	-189.2762451171876	231.3846588134767	430.309753417969	-209.9906311035157	120.2421951293946	372.0431518554689	-164.4524383544922	168.9292297363282	353.2477111816407	-225.4331512451173	189.0164489746094	59.84232711791995	-115.9517059326172	275.575408935547	74.70318603515628	-141.2586669921876	239.2891998291017	23.94798469543458	-73.14261627197268	253.1053314208986	18.98617172241212	-253.5516510009767	191.2351226806641	32.61266708374025	-260.3850097656251	148.3318939208985	21.71478843688966	-202.1073760986329	409.7015686035159	798.2654418945317	-194.4246520996095	413.7016906738284	456.3061523437502	-289.3420715332032	297.1384582519532	434.4002380371096	-319.4614257812501	420.7105712890627	398.0950317382815	-262.1433715820314	380.8575744628907	377.0277709960939	-330.8211059570314	393.0375671386721	97.14582061767584	-167.1977081298829	317.5242614746095	98.74372100830084	-218.7430114746095	334.4814758300782	55.80414581298831	-127.7086257934571	360.2913513183595	37.68958282470705	-310.9706115722657	415.3040466308596	53.89789962768558	-299.3528137207032	444.4691162109377	44.38115692138673	-243.4618072509767	219.6104278564454	1384.204223632813	-125.4138565063477	214.6412353515626	1148.140869140625	-66.49399566650393	210.1988372802736	1157.899291992188	-298.9361877441407	213.3640899658204	1319.044799804688	-254.8117675781251	120.5023498535157	1187.577514648438	-62.73287582397464	129.8788299560547	1319.844970703125	-79.99039459228518	20.10918998718262	1319.485595703125	-154.5251007080079	34.8526954650879	1330.424072265625	-195.1975860595704	-38.24793624877931	1042.635375976563	-165.6226654052735	39.20748519897462	1012.635131835938	-135.6234741210938	-11.09184169769287	1008.576293945313	-132.3139648437501	17.77558708190919	821.8435058593755	-274.7034301757814	-49.40254974365237	812.0302124023442	-232.5488891601564	14.87222385406495	747.3917236328127	-318.7483520507814	-48.5896911621094	733.3256835937502	-236.9087066650392	330.1798095703126	1189.103759765625	-63.05572891235354	307.6437377929689	1315.554321289063	-84.44328308105472	409.3354797363284	1311.450561523438	-165.7839050292969	396.1916809082034	1315.845581054688	-214.3719329833986	475.2664184570315	1015.415466308594	-172.2504119873047	399.231140136719	996.8671875000005	-143.8106384277344	445.4351501464846	988.727172851563	-142.127670288086	439.1898498535159	821.879760742188	-296.8908081054689	502.4679260253909	811.4995117187505	-246.0558471679689	455.7819519042971	740.9991455078127	-342.7427673339845	501.3911132812502	730.4552001953127	-251.5000152587892	
340	3.39	104.7817153930665	873.322387695313	-287.2581787109376	176.6903533935547	916.4915161132817	-106.3997192382813	267.458709716797	913.8407592773442	-105.1738357543946	345.8804321289064	893.4050292968755	-282.5479736328126	58.48383712768558	785.4270019531255	-205.3367156982423	118.3786697387696	433.3780822753909	-190.7786407470704	231.4674224853517	430.0343322753909	-211.3928833007814	120.2935791015626	371.9060058593751	-165.754379272461	169.0680847167969	352.889862060547	-226.5558624267579	189.0342254638672	59.83358001708987	-115.9684753417969	275.7699584960939	74.5243835449219	-141.2600708007813	239.3477935791017	23.9981803894043	-73.11567687988284	253.1137542724611	18.97860145568848	-253.5834350585939	191.2671051025391	32.58479309082033	-260.3586425781251	148.3641967773438	21.73563194274903	-202.0900268554689	409.7222900390627	798.1997070312505	-197.3645629882814	413.2068176269534	456.6037902832034	-294.7427062988282	296.6705627441407	435.1103515625002	-324.4623107910157	420.3352661132815	397.6543273925784	-268.6980285644532	380.2583618164064	378.1802978515626	-337.684783935547	393.2573547363284	94.54912567138675	-181.033676147461	317.6491699218751	97.20111846923834	-232.1283721923829	334.9710693359376	52.25573730468753	-142.2005462646485	360.2766418457032	38.58594512939455	-326.0978393554689	415.2697753906252	54.63479232788089	-314.1916809082032	444.5764465332034	43.68098068237306	-258.5830078125001	219.666717529297	1384.012451171875	-128.2818908691407	214.6144561767579	1148.060546875	-69.11694335937503	210.1429138183595	1157.569458007813	-301.5950012207032	213.4158172607423	1318.798461914063	-257.6431274414064	120.6956100463868	1187.61572265625	-65.17499542236331	129.9252014160157	1319.788696289063	-82.77567291259768	20.15403366088868	1319.33984375	-157.2672271728516	34.85825729370119	1330.213623046875	-197.9698791503907	-37.77415466308595	1042.37744140625	-167.4201812744141	39.75936508178712	1012.683654785157	-137.3063507080079	-10.57197666168213	1008.658935546875	-133.876937866211	18.32453346252442	820.5942382812505	-274.4158935546876	-48.88700103759768	811.1992797851567	-232.1863403320314	15.52597999572755	745.7056274414065	-317.6687622070314	-48.05562210083011	732.4606933593752	-235.7384033203126	330.3066406250001	1189.09521484375	-65.65934753417972	307.7064819335939	1315.411865234375	-87.29709625244143	409.3717956542971	1311.168701171875	-168.6796875000001	396.2146606445315	1315.506591796875	-217.2760162353517	475.0523986816409	1015.2509765625	-174.5368804931641	399.0010681152346	996.789184570313	-146.0927734375001	445.2118835449221	988.9401855468755	-144.196273803711	440.0818481445315	819.980590820313	-296.6298217773439	503.3081665039065	810.5637207031255	-245.3382415771486	457.1567382812502	738.5230102539065	-341.2473754882814	502.6389770507815	729.5190429687502	-249.7601623535157	
341	3.4	104.700050354004	873.0364379882817	-289.6530761718751	176.7653198242188	916.2041015625005	-108.8182373046876	267.4793701171876	913.5876464843755	-107.5971374511719	345.7984619140626	893.3454589843755	-285.0535278320314	58.5017013549805	785.1230468750005	-207.5586700439454	118.445671081543	433.177429199219	-192.2857666015626	231.5577239990236	429.7568969726565	-212.8037109375001	120.3509521484376	371.7673645019532	-167.0650024414063	169.2131652832032	352.5327453613282	-227.6979980468751	189.042953491211	59.81962203979495	-115.9617156982422	275.9783325195314	74.32232666015628	-141.2633666992188	239.4078063964845	24.07411003112794	-73.06545257568362	253.1201324462892	18.96566009521485	-253.6075134277345	191.3031463623047	32.55337142944337	-260.3366088867189	148.3950805664063	21.75786018371583	-202.0753326416017	409.7629089355471	798.1218872070317	-200.2660675048829	412.7121887207034	456.8970947265627	-300.0073547363282	296.2098388671876	435.8186340332034	-329.3410949707032	419.9502258300784	397.2285766601565	-275.1806640625001	379.665740966797	379.3621520996095	-344.4314575195314	393.4617309570315	92.06990051269534	-194.9696044921876	317.7667541503907	95.82013702392581	-245.5873565673829	335.4438781738282	48.87231445312503	-156.8429412841797	360.249725341797	39.68932723999025	-341.2468261718751	415.2171936035159	55.54677963256839	-329.051971435547	444.6587219238284	43.14216232299806	-273.7459106445314	219.7651367187501	1383.82373046875	-131.1744689941407	214.6326904296876	1147.989624023438	-71.7405700683594	210.1295166015626	1157.213623046875	-304.2422790527345	213.5343780517579	1318.547119140625	-260.4880676269532	120.9044036865235	1187.657958984375	-67.64667510986331	130.0085449218751	1319.742431640625	-85.591911315918	20.23897933959962	1319.199829101563	-160.0507812500001	34.91302871704103	1330.001220703125	-200.7874145507814	-37.3112144470215	1042.140258789063	-169.2353820800782	40.26360321044923	1012.749450683594	-138.9642791748047	-10.08500385284424	1008.763305664063	-135.4483489990235	18.85436058044434	819.3703613281255	-274.0911865234376	-48.40190124511722	810.3944702148442	-231.8055572509767	16.15922164916993	744.0599365234377	-316.5667419433595	-47.56332015991212	731.640319824219	-234.5487365722657	330.4874267578126	1189.110473632813	-68.24351501464847	307.8111877441407	1315.274291992188	-90.16946411132815	409.4524841308596	1310.881103515625	-171.5859985351563	396.2866821289065	1315.15576171875	-220.1934814453126	474.8396606445315	1015.059936523438	-176.7868957519532	398.7855529785159	996.7166137695317	-148.313949584961	445.0009460449221	989.1421508789067	-146.2149047851563	440.9626159667971	818.1455078125005	-296.3406982421876	504.1270751953127	809.6423339843755	-244.5528564453126	458.5030517578127	736.1157836914065	-339.6978759765626	503.8485107421877	728.636901855469	-247.9868927001954	
342	3.41	104.6452331542969	872.7359008789067	-291.956024169922	176.8754425048829	915.9121093750005	-111.2201614379883	267.5289306640626	913.3312988281255	-110.0096054077149	345.7291870117189	893.276977539063	-287.5602416992189	58.53322219848636	784.8256225585942	-209.7448883056642	118.5209426879883	432.9729003906252	-193.8052368164064	231.6577911376954	429.4770507812502	-214.2320098876954	120.4153442382813	371.6253051757814	-168.3919830322266	169.3650054931641	352.1744689941407	-228.8632202148439	189.044906616211	59.80220031738284	-115.936622619629	276.191619873047	74.10972595214847	-141.2746887207032	239.4712677001954	24.16888427734376	-72.99758148193362	253.1243591308595	18.94748878479005	-253.6227111816407	191.3417205810547	32.52247619628908	-260.3215942382814	148.4244689941407	21.7825107574463	-202.0640411376954	409.8262023925784	798.0349121093755	-203.1350097656251	412.2226867675784	457.1858825683596	-305.1323242187501	295.7589111328126	436.5264587402346	-334.1007690429689	419.5608520507815	396.8224792480471	-281.5820312500001	379.083953857422	380.5722961425782	-351.054656982422	393.6481018066409	89.72499084472659	-208.9793853759767	317.8754882812501	94.62195587158206	-259.1142578125001	335.8924560546876	45.66831588745119	-171.6224975585938	360.2129821777345	41.011043548584	-356.3984375000001	415.1509704589846	56.64617156982425	-343.9160156250001	444.7178649902346	42.78002548217775	-288.9395446777345	219.9078979492189	1383.637939453125	-134.0936279296876	214.6977844238282	1147.928344726563	-74.36592864990237	210.1567993164064	1156.832763671875	-306.8815002441407	213.7187805175782	1318.2900390625	-263.3474426269532	121.1267547607422	1187.7021484375	-70.14994049072268	130.1314392089844	1319.706665039063	-88.43759918212893	20.36534690856934	1319.064453125	-162.8725585937501	35.01778411865236	1329.786376953125	-203.6476898193361	-36.86271286010744	1041.922973632813	-171.0780792236329	40.70951080322267	1012.830383300782	-140.5974884033204	-9.639007568359379	1008.887878417969	-137.0373535156251	19.36706924438477	818.174682617188	-273.7411193847657	-47.95137023925783	809.618774414063	-231.4277191162111	16.77604866027833	742.4593505859377	-315.456512451172	-47.12033843994142	730.8684692382815	-233.3642425537111	330.7178039550782	1189.14453125	-70.81502532958987	307.9595031738282	1315.140258789063	-93.06323242187503	409.5784912109377	1310.587280273438	-174.5052947998047	396.4087219238284	1314.7919921875	-223.1268157958986	474.631774902344	1014.840087890625	-178.9968261718751	398.5890197753909	996.6498413085942	-150.4685516357422	444.8065490722659	989.3284301757817	-148.1813201904297	441.8279418945315	816.3845825195317	-296.0390625000001	504.9202270507815	808.740112304688	-243.7219848632814	459.8119812011721	733.7918090820315	-338.1204833984376	505.009216308594	727.8084106445315	-246.2071533203126	
